<svg width="72" height="72" viewBox="0 0 72 72" fill="none" xmlns="http://www.w3.org/2000/svg">
<circle cx="36" cy="36" r="36" fill="white"/>
<path d="M24.2929 35.2929C23.9024 35.6834 23.9024 36.3166 24.2929 36.7071L30.6569 43.0711C31.0474 43.4616 31.6805 43.4616 32.0711 43.0711C32.4616 42.6805 32.4616 42.0474 32.0711 41.6569L26.4142 36L32.0711 30.3431C32.4616 29.9526 32.4616 29.3195 32.0711 28.9289C31.6805 28.5384 31.0474 28.5384 30.6569 28.9289L24.2929 35.2929ZM49 37C49.5523 37 50 36.5523 50 36C50 35.4477 49.5523 35 49 35V37ZM25 37H49V35H25V37Z" fill="#1B2B7A"/>
</svg>
