<svg width="584" height="324" viewBox="0 0 584 324" fill="none" xmlns="http://www.w3.org/2000/svg">
<path d="M17.7826 322.474H570.726L530.696 91.5918C523.728 51.4029 484.903 24.983 445.023 33.2917L98.3362 105.515C7.76233 120.864 30.8799 258.106 17.7826 322.474Z" fill="#E3EEFE"/>
<path d="M70.4667 244.821L62.1943 229.209L61.7382 135.354C61.7256 132.771 63.8141 130.669 66.3944 130.669H70.4667V244.821Z" fill="#4067FF"/>
<path d="M79.3775 322.474H62.6477L62.6285 318.53C68.8645 320.633 74.0532 321.668 76.9323 322.136C77.7093 322.357 78.5297 322.474 79.3775 322.474Z" fill="#B9D2FF"/>
<path d="M79.3775 322.474C79.3775 322.474 25.7461 317.215 14.05 268.507C14.05 268.507 47.8157 269.453 56.534 280.734C56.534 280.734 38.4003 267.319 35.6106 238.81C35.6106 238.81 60.7349 253.145 65.6007 267.343C65.6007 267.343 55.8364 257.023 60.0213 225.108L83.4877 269.394L79.3775 322.474Z" fill="#A6C700"/>
<path d="M76.9323 322.136C73.9722 321.654 68.5724 320.576 62.1012 318.349C68.5075 306.975 67.0542 254.984 66.3443 237.04L70.4666 244.821V313.551C70.4666 317.63 73.1997 321.071 76.9323 322.136Z" fill="#A6C700"/>
<path d="M266.57 322.474H79.3775C74.4561 322.474 70.4666 318.479 70.4666 313.551V88.7743C70.4666 83.8466 74.4561 79.8513 79.3775 79.8513H266.57C271.493 79.8513 275.481 83.8466 275.481 88.7743V313.551C275.481 318.479 271.493 322.474 266.57 322.474Z" fill="#A0B3FF"/>
<path d="M106.568 122.838H87.1715C83.5044 122.838 80.5315 119.861 80.5315 116.189C80.5315 112.516 83.5044 109.539 87.1715 109.539H106.568V122.838Z" fill="#E3EEFE"/>
<path d="M106.568 109.539H125.965C129.632 109.539 132.605 112.516 132.605 116.189C132.605 119.861 129.632 122.838 125.965 122.838H106.568V109.539Z" fill="#A4C4FF"/>
<path d="M106.533 147.116H87.1371C83.47 147.116 80.4971 144.14 80.4971 140.467C80.4971 136.795 83.47 133.818 87.1371 133.818H106.533V147.116Z" fill="#E3EEFE"/>
<path d="M106.533 133.818H125.93C129.597 133.818 132.57 136.795 132.57 140.467C132.57 144.14 129.597 147.116 125.93 147.116H106.533V133.818Z" fill="#A4C4FF"/>
<path d="M106.499 171.395H87.1024C83.4353 171.395 80.4624 168.419 80.4624 164.746C80.4624 161.073 83.4353 158.097 87.1024 158.097H106.499V171.395Z" fill="#E3EEFE"/>
<path d="M106.499 158.097H125.895C129.563 158.097 132.536 161.073 132.536 164.746C132.536 168.419 129.563 171.395 125.895 171.395H106.499V158.097Z" fill="#A4C4FF"/>
<path d="M106.464 195.674H87.068C83.4006 195.674 80.428 192.695 80.428 189.025C80.428 185.352 83.4009 182.375 87.068 182.375H106.464V195.674Z" fill="#E3EEFE"/>
<path d="M106.464 182.375H125.861C129.528 182.375 132.501 185.352 132.501 189.025C132.501 192.695 129.528 195.674 125.861 195.674H106.464V182.375Z" fill="#A4C4FF"/>
<path d="M106.43 219.95H87.0333C83.3662 219.95 80.3933 216.974 80.3933 213.301C80.3933 209.631 83.3662 206.652 87.0333 206.652H106.43V219.95Z" fill="#E3EEFE"/>
<path d="M106.43 206.652H125.826C129.494 206.652 132.467 209.631 132.466 213.301C132.466 216.974 129.494 219.95 125.826 219.95H106.43V206.652Z" fill="#A4C4FF"/>
<path d="M106.395 244.229H86.9989C83.3316 244.229 80.3589 241.252 80.3589 237.58C80.3589 233.907 83.3316 230.93 86.9989 230.93H106.395V244.229Z" fill="#E3EEFE"/>
<path d="M106.395 230.93H125.792C129.459 230.93 132.432 233.907 132.432 237.58C132.432 241.252 129.459 244.229 125.792 244.229H106.395V230.93Z" fill="#A4C4FF"/>
<path d="M106.361 268.507H86.9642C83.2971 268.507 80.3242 265.531 80.3242 261.858C80.3242 258.186 83.2971 255.209 86.9642 255.209H106.361V268.507Z" fill="#E3EEFE"/>
<path d="M106.361 255.209H125.757C129.425 255.209 132.397 258.186 132.397 261.858C132.397 265.531 129.425 268.507 125.757 268.507H106.361V255.209Z" fill="#A4C4FF"/>
<path d="M106.326 292.786H86.9298C83.2624 292.786 80.2896 289.81 80.2896 286.137C80.2896 282.464 83.2624 279.488 86.9298 279.488H106.326V292.786Z" fill="#E3EEFE"/>
<path d="M106.326 279.488H125.723C129.39 279.488 132.363 282.464 132.363 286.137C132.363 289.81 129.39 292.786 125.723 292.786H106.326V279.488Z" fill="#A4C4FF"/>
<path d="M173.095 122.838H153.699C150.031 122.838 147.058 119.861 147.058 116.189C147.058 112.516 150.031 109.539 153.699 109.539H173.095V122.838Z" fill="#E3EEFE"/>
<path d="M173.095 109.539H192.493C196.158 109.539 199.133 112.516 199.133 116.189C199.133 119.861 196.158 122.838 192.493 122.838H173.095V109.539Z" fill="#A4C4FF"/>
<path d="M173.061 147.116H153.664C149.997 147.116 147.024 144.14 147.024 140.467C147.024 136.795 149.997 133.818 153.664 133.818H173.061V147.116Z" fill="#E3EEFE"/>
<path d="M173.061 133.818H192.457C196.125 133.818 199.097 136.795 199.097 140.467C199.097 144.14 196.125 147.116 192.457 147.116H173.061V133.818Z" fill="#A4C4FF"/>
<path d="M173.026 171.395H153.63C149.962 171.395 146.989 168.419 146.989 164.746C146.989 161.073 149.962 158.097 153.63 158.097H173.026V171.395Z" fill="#E3EEFE"/>
<path d="M173.026 158.097H192.422C196.09 158.097 199.062 161.073 199.062 164.746C199.062 168.419 196.09 171.395 192.422 171.395H173.026V158.097Z" fill="#A4C4FF"/>
<path d="M172.991 195.674H153.595C149.928 195.674 146.955 192.695 146.955 189.025C146.955 185.352 149.928 182.375 153.595 182.375H172.991V195.674Z" fill="#E3EEFE"/>
<path d="M172.991 182.375H192.389C196.054 182.375 199.029 185.352 199.029 189.025C199.029 192.695 196.054 195.674 192.389 195.674H172.991V182.375Z" fill="#A4C4FF"/>
<path d="M172.957 219.95H153.56C149.893 219.95 146.92 216.974 146.92 213.301C146.92 209.631 149.893 206.652 153.56 206.652H172.957V219.95Z" fill="#E3EEFE"/>
<path d="M172.957 206.652H192.353C196.021 206.652 198.993 209.631 198.993 213.301C198.993 216.974 196.021 219.95 192.353 219.95H172.957V206.652Z" fill="#A4C4FF"/>
<path d="M172.922 244.229H153.526C149.859 244.229 146.886 241.252 146.886 237.58C146.886 233.907 149.859 230.93 153.526 230.93H172.922V244.229Z" fill="#E3EEFE"/>
<path d="M172.922 230.93H192.318C195.986 230.93 198.958 233.907 198.958 237.58C198.958 241.252 195.986 244.229 192.318 244.229H172.922V230.93Z" fill="#A4C4FF"/>
<path d="M172.888 268.507H153.491C149.824 268.507 146.851 265.531 146.851 261.858C146.851 258.186 149.824 255.209 153.491 255.209H172.888V268.507Z" fill="#E3EEFE"/>
<path d="M172.888 255.209H192.285C195.95 255.209 198.925 258.186 198.925 261.858C198.925 265.531 195.95 268.507 192.285 268.507H172.888V255.209Z" fill="#A4C4FF"/>
<path d="M172.853 292.786H153.457C149.79 292.786 146.817 289.81 146.817 286.137C146.817 282.464 149.79 279.488 153.457 279.488H172.853V292.786Z" fill="#E3EEFE"/>
<path d="M172.853 279.488H192.25C195.917 279.488 198.89 282.464 198.89 286.137C198.89 289.81 195.917 292.786 192.25 292.786H172.853V279.488Z" fill="#A4C4FF"/>
<path d="M239.621 122.838H220.227C216.559 122.838 213.587 119.861 213.587 116.189C213.587 112.516 216.559 109.539 220.227 109.539H239.621V122.838Z" fill="#E3EEFE"/>
<path d="M239.621 109.539H259.019C262.686 109.539 265.659 112.516 265.659 116.189C265.659 119.861 262.686 122.838 259.019 122.838H239.621V109.539Z" fill="#A4C4FF"/>
<path d="M239.588 147.116H220.191C216.524 147.116 213.551 144.14 213.551 140.467C213.551 136.795 216.524 133.818 220.191 133.818H239.588V147.116Z" fill="#E3EEFE"/>
<path d="M239.588 133.818H258.983C262.651 133.818 265.623 136.795 265.623 140.467C265.623 144.14 262.651 147.116 258.983 147.116H239.588V133.818Z" fill="#A4C4FF"/>
<path d="M239.553 171.395H220.156C216.488 171.395 213.516 168.419 213.516 164.746C213.516 161.073 216.488 158.097 220.156 158.097H239.553V171.395Z" fill="white"/>
<path d="M239.553 158.097H258.95C262.618 158.097 265.59 161.073 265.59 164.746C265.59 168.419 262.618 171.395 258.95 171.395H239.553V158.097Z" fill="#A4C4FF"/>
<path d="M239.518 195.674H220.123C216.455 195.674 213.483 192.695 213.483 189.025C213.483 185.352 216.455 182.375 220.123 182.375H239.518V195.674Z" fill="white"/>
<path d="M239.518 182.375H258.915C262.582 182.375 265.555 185.352 265.555 189.025C265.555 192.695 262.582 195.674 258.915 195.674H239.518V182.375Z" fill="#A4C4FF"/>
<path d="M239.485 219.95H220.088C216.42 219.95 213.448 216.974 213.448 213.301C213.448 209.631 216.42 206.652 220.088 206.652H239.485V219.95Z" fill="white"/>
<path d="M239.485 206.652H258.879C262.547 206.652 265.519 209.631 265.519 213.301C265.519 216.974 262.547 219.95 258.879 219.95H239.485V206.652Z" fill="#A4C4FF"/>
<path d="M239.449 244.229H220.052C216.385 244.229 213.412 241.252 213.412 237.58C213.412 233.907 216.385 230.93 220.052 230.93H239.449V244.229Z" fill="white"/>
<path d="M239.449 230.93H258.846C262.514 230.93 265.486 233.907 265.486 237.58C265.486 241.252 262.514 244.229 258.846 244.229H239.449V230.93Z" fill="#A4C4FF"/>
<path d="M239.414 268.507H220.019C216.352 268.507 213.379 265.531 213.379 261.858C213.379 258.186 216.352 255.209 220.019 255.209H239.414V268.507Z" fill="white"/>
<path d="M239.414 255.209H258.811C262.478 255.209 265.451 258.186 265.451 261.858C265.451 265.531 262.478 268.507 258.811 268.507H239.414V255.209Z" fill="#A4C4FF"/>
<path d="M239.381 292.786H219.984C216.316 292.786 213.344 289.81 213.344 286.137C213.344 282.464 216.316 279.488 219.984 279.488H239.381V292.786Z" fill="white"/>
<path d="M239.381 279.488H258.776C262.443 279.488 265.416 282.464 265.416 286.137C265.416 289.81 262.443 292.786 258.776 292.786H239.381V279.488Z" fill="#A4C4FF"/>
<path d="M309.588 225.249C305.033 201.302 278.89 156.696 297.967 135.038C295.778 160.585 314.299 195.179 318.256 215.977L368.763 200.59C369.465 202.741 370.193 204.74 370.963 206.552L309.588 225.249Z" fill="#CCDFFE"/>
<path d="M341.501 321.579C295.18 320.77 312.507 256.184 309.424 227.472H373.578C370.511 256.047 387.802 320.83 341.501 321.579Z" fill="#CCDFFE"/>
<path d="M386.11 195.307L318.256 215.977C312.291 184.618 273.21 121.888 321.945 106.108C371.157 91.9785 373.684 166.072 386.11 195.307Z" fill="#4067FF"/>
<path d="M318.075 218.436H388.999C385.591 250.175 404.748 321.581 353.537 322.474C302.35 321.648 321.466 250.025 318.075 218.436Z" fill="#A4C4FF"/>
<path d="M397.241 221.298C396.42 209.527 379.913 204.915 373.062 214.379C369.085 205.925 355.657 208.928 355.816 218.436C355.578 225.808 364.813 230.272 370.44 225.673C370.85 227.603 371.669 229.379 372.803 230.911C364.921 244.136 375.365 262.325 390.901 261.896C414.307 262.159 419.308 227.998 397.241 221.298Z" fill="white"/>
<path d="M143.835 202.716H92.1981C91.0089 202.716 90.0448 201.751 90.0448 200.559V184.508C90.0448 183.319 91.0089 182.353 92.1981 182.353H143.835C145.025 182.353 145.989 183.319 145.989 184.508V200.559C145.989 201.751 145.025 202.716 143.835 202.716Z" fill="#38385C"/>
<mask id="mask0_1_228" style="mask-type:luminance" maskUnits="userSpaceOnUse" x="90" y="182" width="56" height="21">
<path d="M143.835 202.716H92.1981C91.0087 202.716 90.0448 201.751 90.0448 200.559V184.508C90.0448 183.317 91.0087 182.353 92.1981 182.353H143.835C145.025 182.353 145.989 183.317 145.989 184.508V200.559C145.989 201.751 145.025 202.716 143.835 202.716Z" fill="white"/>
</mask>
<g mask="url(#mask0_1_228)">
<path d="M148.695 204.358H88.1095V196.485H148.695V204.358Z" fill="#1A1A35"/>
</g>
<path d="M137.074 322.474H98.5226C95.0296 322.474 92.1981 319.639 92.1981 316.141V202.716H143.399V316.141C143.399 319.639 140.567 322.474 137.074 322.474Z" fill="#A4C4FF"/>
<mask id="mask1_1_228" style="mask-type:luminance" maskUnits="userSpaceOnUse" x="92" y="202" width="52" height="121">
<path d="M137.074 322.474H98.5223C95.0296 322.474 92.1981 319.639 92.1981 316.141V202.716H143.399V316.141C143.399 319.639 140.567 322.474 137.074 322.474Z" fill="white"/>
</mask>
<g mask="url(#mask1_1_228)">
<path d="M86.1542 225.108L148.397 219.44V325.192H87.6291L86.1542 225.108Z" fill="#4067FF"/>
</g>
<path d="M136.934 291.339H98.0657C96.9207 291.339 95.9923 290.411 95.9923 289.264V237.16C95.9923 236.013 96.9207 235.085 98.0657 235.085H136.934C138.079 235.085 139.008 236.013 139.008 237.16V289.264C139.008 290.411 138.079 291.339 136.934 291.339Z" fill="#A0B3FF"/>
<path d="M134.566 248.275H100.434V242.684H134.566V248.275Z" fill="white"/>
<path d="M134.566 257.178H100.434V251.587H134.566V257.178Z" fill="white"/>
<path d="M134.566 266.081H100.434V260.49H134.566V266.081Z" fill="white"/>
<path d="M134.566 274.984H100.434V269.394H134.566V274.984Z" fill="white"/>
<path d="M123.071 283.885H100.434V278.297H123.071V283.885Z" fill="white"/>
<path d="M192.353 219.95H172.957V206.652H192.353C196.021 206.652 198.993 209.631 198.993 213.301C198.993 216.974 196.021 219.95 192.353 219.95Z" fill="#7AA5FF"/>
<path d="M192.318 244.229H172.922V230.93H192.318C195.986 230.93 198.958 233.907 198.958 237.58C198.958 241.252 195.986 244.229 192.318 244.229Z" fill="#7AA5FF"/>
<path d="M192.285 268.507H172.888V255.209H192.285C195.95 255.209 198.925 258.186 198.925 261.858C198.925 265.531 195.95 268.507 192.285 268.507Z" fill="#7AA5FF"/>
<path d="M192.25 292.786H172.853V279.488H192.25C195.917 279.488 198.89 282.464 198.89 286.137C198.89 289.81 195.917 292.786 192.25 292.786Z" fill="#7AA5FF"/>
<path d="M275.67 193.535C266.464 185.155 248.775 177.843 250.386 162.894C237.258 162.894 219.201 162.894 206.075 162.894C207.692 177.83 189.968 185.18 180.788 193.535C171.636 200.661 166.283 211.619 166.283 223.229V313.465C166.283 318.441 170.311 322.474 175.28 322.474C186.843 322.202 225.375 322.671 236.234 322.474H281.178C286.148 322.474 290.175 318.441 290.175 313.465V223.229C290.175 211.619 284.822 200.661 275.67 193.535Z" fill="#4067FF"/>
<mask id="mask2_1_228" style="mask-type:luminance" maskUnits="userSpaceOnUse" x="166" y="162" width="125" height="161">
<path d="M275.67 193.535C266.464 185.155 248.775 177.843 250.386 162.894C237.258 162.894 219.201 162.894 206.075 162.894C207.692 177.83 189.968 185.18 180.788 193.537C171.636 200.661 166.283 211.619 166.283 223.229V313.465C166.283 318.441 170.311 322.474 175.28 322.474C181.373 322.331 194.951 322.395 208.023 322.457C219.763 322.512 231.097 322.567 236.234 322.474H281.178C286.148 322.474 290.175 318.441 290.175 313.465V223.229C290.175 211.619 284.822 200.661 275.67 193.535Z" fill="white"/>
</mask>
<g mask="url(#mask2_1_228)">
<path d="M296.623 221.338L162.465 213.75V328.704H294.255L296.623 221.338Z" fill="#4067FF"/>
</g>
<path d="M290.175 280.734H166.283V225.108H290.175V280.734Z" fill="white"/>
<path d="M275.483 242.536H184.394V235.085H275.483V242.536Z" fill="#A4C4FF"/>
<path d="M275.483 254.383H184.394V246.931H275.483V254.383Z" fill="#A4C4FF"/>
<path d="M251.224 266.229H184.394V258.778H251.224V266.229Z" fill="#A4C4FF"/>
<path d="M275.483 258.57H267.278V250.356H259.427V258.57H251.224V266.435H259.427V274.648H267.278V266.435H275.483V258.57Z" fill="#4067FF"/>
<path d="M251.187 162.894H205.221C201.783 162.894 198.996 160.103 198.996 156.66V143.435C198.996 139.992 201.783 137.201 205.221 137.201H251.187C254.625 137.201 257.412 139.992 257.412 143.435C256.673 149.209 260.482 162.697 251.187 162.894Z" fill="#38385C"/>
<mask id="mask3_1_228" style="mask-type:luminance" maskUnits="userSpaceOnUse" x="198" y="137" width="60" height="26">
<path d="M251.187 162.894H205.221C201.783 162.894 198.996 160.103 198.996 156.66V143.435C198.996 139.992 201.783 137.201 205.221 137.201H251.187C254.625 137.201 257.412 139.992 257.412 143.435C256.673 149.209 260.482 162.697 251.187 162.894Z" fill="white"/>
</mask>
<g mask="url(#mask3_1_228)">
<path d="M260.369 164.931H196.56V155.542H260.369V164.931Z" fill="#1A1A35"/>
</g>
<path d="M390.327 2.74397H444.52C452.303 2.74397 458.671 9.12134 458.671 16.913C458.667 30.3837 461.664 48.6738 442.077 47.8319V57.3074C442.077 60.337 438.467 61.9103 436.251 59.8442L423.381 47.8319H390.327C382.544 47.8319 376.178 41.4546 376.178 33.6629C376.283 21.8032 373.141 3.37154 390.327 2.74397Z" fill="#A0B3FF"/>
<path d="M391.051 24.9189C391.137 29.8621 398.481 29.8621 398.565 24.9189C398.479 19.9757 391.135 19.9757 391.051 24.9189Z" fill="white"/>
<path d="M413.299 24.9189C413.383 29.8621 420.727 29.8621 420.81 24.9189C420.727 19.9757 413.383 19.9757 413.299 24.9189Z" fill="white"/>
<path d="M435.547 24.9189C435.631 29.8621 442.975 29.8621 443.059 24.9189C442.975 19.9757 435.631 19.9757 435.547 24.9189Z" fill="white"/>
<path d="M465.128 322.474L440.113 321.88L442.271 316.035L456.374 307.355V304.04H450.041L448.242 258.11C405.251 245.208 425.873 199.919 430.533 172.862C430.533 172.862 425.566 176.973 419.14 176.973C417.286 176.973 415.311 176.63 413.297 175.748C405.403 172.29 388.604 141.842 384.607 134.439L385.212 134.432L393.013 146.361C393.01 146.358 393.015 146.363 393.013 146.361L405.046 164.759C408.069 169.512 413.05 171.802 418.299 171.802C418.394 171.802 418.487 171.799 418.582 171.799C418.922 171.817 419.255 171.828 419.581 171.828C423.247 171.828 426.124 170.659 428.627 168.818C431.787 166.889 434.587 164.041 436.562 160.322C435.119 167.197 425.098 215.659 425.767 230.066C426.477 245.347 452.25 255.812 452.25 255.812L454.033 171.755H465.128V261.136L464.958 261.211L465.128 261.388V322.474ZM418.489 146.339C418.489 146.339 437.718 104.647 438.795 103.352C439.872 102.057 457.133 94.5086 457.133 94.5086C457.133 94.5086 450.791 93.8236 449.591 90.6858C448.388 87.5479 451.758 63.4328 451.758 63.4328L465.128 62.6483V97.5029L462.059 97.5471C462.059 97.5471 459.157 98.5127 455.553 99.9933C455.328 100.071 441.973 104.729 439.645 109.31L418.489 146.339Z" fill="#CBDEFE"/>
<path d="M515.15 321.387C515.15 321.387 512.076 317.988 511.46 317.14C510.845 316.291 516.951 305.315 516.951 305.315L513.689 302.341L507.619 305.315L465.128 261.388V261.136L472.9 257.768C473.189 258.15 473.492 258.522 473.807 258.884L511.032 300.686L520.157 294.432L529.45 304.515L515.15 321.387Z" fill="#CBDEFE"/>
<path d="M465.128 261.388L464.958 261.211L465.128 261.136V261.388Z" fill="#BCD4FE"/>
<path d="M458.874 297.762L460.686 313.151C460.686 313.151 463.959 314.526 467.43 314.493C470.899 314.457 471.04 313.379 471.04 313.379L470.603 297.546L458.874 297.762Z" fill="#FFB6A6"/>
<mask id="mask4_1_228" style="mask-type:luminance" maskUnits="userSpaceOnUse" x="458" y="297" width="14" height="18">
<path d="M458.874 297.762L460.686 313.151C460.686 313.151 463.959 314.526 467.43 314.493C470.899 314.457 471.04 313.379 471.04 313.379L470.603 297.546L458.874 297.762Z" fill="white"/>
</mask>
<g mask="url(#mask4_1_228)">
<path d="M474.198 306.018C474.198 306.018 465.819 307.919 457.376 303.797L457.166 296.585H473.313L474.198 306.018Z" fill="#FFDFD8"/>
</g>
<path d="M471.04 313.379C471.04 313.379 462.008 316.205 460.501 310.19L448.251 316.168C446.232 317.153 445.034 319.303 445.257 321.544L470.069 321.88C473.428 321.966 471.142 315.346 471.04 313.379Z" fill="#38385C"/>
<path d="M511.46 294.222L522.267 305.315C522.267 305.315 525.7 304.405 528.428 302.259C531.158 300.114 530.613 299.172 530.613 299.172L520.625 286.89L511.46 294.222Z" fill="#FFB6A6"/>
<mask id="mask5_1_228" style="mask-type:luminance" maskUnits="userSpaceOnUse" x="511" y="286" width="20" height="20">
<path d="M511.46 294.222L522.267 305.315C522.267 305.315 525.7 304.405 528.428 302.259C531.158 300.114 530.613 299.172 530.613 299.172L520.625 286.89L511.46 294.222Z" fill="white"/>
</mask>
<g mask="url(#mask5_1_228)">
<path d="M529.809 293.827C529.809 293.827 524.328 300.45 515.126 302.337L510.567 296.748L523.363 286.89L529.809 293.827Z" fill="#FFDFD8"/>
</g>
<path d="M530.612 299.172C530.612 299.172 525.175 306.929 520.316 303.079L514.25 315.297C513.248 317.312 513.61 319.747 515.15 321.387L535.019 306.502C537.753 304.564 531.87 300.637 530.612 299.172Z" fill="#38385C"/>
<path d="M462.354 99.9911L461.293 91.2316C457.14 91.5233 452.102 91.7111 452.205 86.1624L454.322 65.6271L475.508 65.6315C474.99 74.201 475.663 91.4415 476.647 99.9911H462.354Z" fill="#FFDFD8"/>
<path d="M461.293 91.2316C461.293 91.2316 465.505 90.3963 467.112 85.8663C467.112 85.8663 467.494 94.0534 460.935 95.7174L461.293 91.2316Z" fill="#FFDFD8"/>
<path d="M472.807 69.6554C472.807 69.6554 459.419 73.317 452.283 72.4729L452.929 63.8349L472.807 66.6524V69.6554Z" fill="#FFDFD8"/>
<path d="M454.445 85.9436L459.602 84.4653C459.602 84.4653 457.142 89.2693 454.445 85.9436Z" fill="white"/>
<path d="M471.095 67.7706C471.095 67.7706 464.599 65.7796 454.322 65.6271C444.043 65.4746 447.446 56.5251 447.446 56.5251C447.446 56.5251 471.095 49.951 475.998 56.5251C480.902 63.0991 477.265 64.6813 477.265 64.6813C488.919 64.3609 476.157 80.9253 475.264 82.1097L471.892 76.0174C471.892 76.0174 473.876 76.1544 474.198 75.3699C474.522 74.5832 475.169 71.1625 474.383 70.8841C473.6 70.6079 470.967 72.2254 470.967 72.2254L471.095 67.7706Z" fill="#38385C"/>
<path d="M462.059 97.5471C462.059 97.5471 444.275 103.465 442.053 108.47C439.833 113.473 446.951 171.755 446.951 171.755H493.484C493.484 171.755 498.774 117.738 498.811 113.63C498.909 103.116 476.442 97.3371 476.442 97.3371L462.059 97.5471Z" fill="#4067FF"/>
<path d="M446.951 171.755L455.182 302.341H476.519V171.755H446.951Z" fill="#38385C"/>
<path d="M493.484 171.755L497.682 183.085C502.819 193.519 496.916 230.495 496.978 241.915L527.221 289.593L511.032 300.686L473.807 258.884C470.468 255.046 468.628 250.127 468.628 245.035V171.755H493.484Z" fill="#38385C"/>
<path d="M476.519 261.931C476.519 261.931 468.628 253.525 468.628 247.135C468.628 244.297 466.832 199.976 466.832 199.976C466.832 199.976 461.518 244.949 461.734 250.242C461.953 255.532 476.519 275.042 476.519 275.042V261.931Z" fill="#1A1A35"/>
<path d="M462.032 97.3372L468.478 97.4543C466.604 99.9889 464.609 105.509 460.536 102.559L457.133 99.3569L462.032 97.3372Z" fill="white"/>
<path d="M468.312 97.4321C473.684 105.648 472.876 102.888 480.099 98.4552L476.433 97.2244L468.312 97.4321Z" fill="white"/>
<path d="M469.405 101.938C471.466 101.169 470.791 97.6001 470.217 97.3371C470.217 97.3371 468.184 95.998 466.902 97.4763C466.865 97.3592 465.283 101.054 466.918 102.137C466.068 109.303 461.213 150.29 461.273 151.255C461.339 152.314 465.709 162.89 465.709 162.89C465.709 162.89 473.187 153.856 473.375 152.27C473.547 150.804 469.965 108.549 469.405 101.938Z" fill="#38385C"/>
<path d="M439.645 109.31L418.489 146.339L391.285 116.038L378.834 124.683L405.046 164.759C407.901 169.123 412.763 171.755 417.975 171.755C427.011 172.546 431.506 166.677 436.562 160.322C435.119 167.197 425.098 215.659 425.767 230.066C426.477 245.347 452.25 255.812 452.25 255.812L455.555 99.9911C455.555 99.9911 441.993 104.691 439.645 109.31Z" fill="white"/>
<mask id="mask6_1_228" style="mask-type:luminance" maskUnits="userSpaceOnUse" x="378" y="99" width="78" height="157">
<path d="M439.645 109.31L418.489 146.339L391.285 116.038L378.834 124.683L405.046 164.759C407.901 169.123 412.763 171.755 417.975 171.755C427.011 172.546 431.506 166.677 436.562 160.322C435.119 167.197 425.098 215.659 425.767 230.066C426.477 245.347 452.25 255.812 452.25 255.812L455.555 99.9911C455.555 99.9911 441.993 104.691 439.645 109.31Z" fill="white"/>
</mask>
<g mask="url(#mask6_1_228)">
<path d="M454.384 155.242C451.8 153.987 445.793 151.087 445.208 150.961C444.464 150.802 440.689 147.684 440.689 147.684L449.591 144.352L454.549 147.375L454.384 155.242Z" fill="#F1F6FE"/>
</g>
<path d="M418.299 171.802C413.05 171.802 408.069 169.512 405.046 164.759L393.013 146.361C393.01 146.358 393.015 146.363 393.013 146.361L405.046 164.759C407.901 169.123 412.763 171.755 417.975 171.755C418.178 171.773 418.381 171.788 418.582 171.799C418.487 171.799 418.394 171.802 418.299 171.802ZM428.627 168.818C431.573 166.651 433.996 163.548 436.562 160.322C434.587 164.041 431.787 166.889 428.627 168.818Z" fill="#D7E6FE"/>
<path d="M418.582 171.799C418.381 171.788 418.178 171.773 417.975 171.755C412.763 171.755 407.901 169.123 405.046 164.759L393.013 146.361C404.613 157.314 412.335 162.169 418.233 162.169C427.407 162.169 432.186 150.438 440.358 131.701L436.562 160.322C433.996 163.548 431.573 166.651 428.627 168.818C425.482 170.737 421.982 171.746 418.582 171.799Z" fill="#F1F6FE"/>
<path d="M481.425 98.1548C481.425 98.1548 485.247 238.375 491.183 245.612C497.121 252.851 521.386 265.732 524.743 262.523C528.097 259.313 510.286 166.255 510.286 156.689C509.13 117.391 517.747 108.355 481.425 98.1548Z" fill="white"/>
<path d="M514.029 183.074C513.363 178.983 512.749 175.161 512.219 171.755L514.029 183.074Z" fill="#E3EEFE"/>
<path d="M509.671 183.675C497.368 183.675 488.78 169.773 483.839 164.01C483.839 164.01 489.395 166.671 497.924 170.752C501.325 172.381 504.286 172.869 506.617 172.869C510.121 172.869 512.202 171.764 512.219 171.755C512.749 175.161 513.363 178.983 514.029 183.074L514.033 183.098C512.531 183.494 511.076 183.675 509.671 183.675Z" fill="#F1F6FE"/>
<path d="M482.672 135.743L482.669 135.701C482.669 135.716 482.672 135.727 482.672 135.743Z" fill="#EDA59E"/>
<path d="M501.614 146.361L482.917 142.111L482.672 135.743C482.672 135.727 482.669 135.716 482.669 135.701L496.422 139.272C495.526 124.999 501.614 119.282 501.614 119.282C498.935 130.95 501.614 146.361 501.614 146.361Z" fill="#F1F6FE"/>
<path d="M508.221 111.97L521.342 151.569C523.11 156.899 521.991 162.764 518.389 167.068C513.652 172.732 505.681 174.464 499.023 171.278L449.591 147.618L452.181 134.547L499.84 146.277C499.84 146.277 495.384 120.601 508.221 111.97Z" fill="white"/>
<path d="M391.417 134.362L363.745 134.671C361.426 136.742 338.553 99.6464 337.198 98.8818C336.679 98.1305 337.207 97.1073 338.118 97.0963L366.36 96.7825C366.997 96.7737 367.596 97.083 367.957 97.6068L392.271 132.707C392.752 133.4 392.262 134.353 391.417 134.362Z" fill="#38385C"/>
<path d="M366.746 98.8022L388.966 130.965L363.416 131.31L341.446 99.3414L366.746 98.8022Z" fill="#D1DAF7"/>
<mask id="mask7_1_228" style="mask-type:luminance" maskUnits="userSpaceOnUse" x="341" y="98" width="48" height="34">
<path d="M366.746 98.8022L388.966 130.965L363.416 131.31L341.446 99.3414L366.746 98.8022Z" fill="white"/>
</mask>
<g mask="url(#mask7_1_228)">
<path d="M363.416 131.31L357.277 122.376C366.358 115.017 361.6 102.433 360.033 98.9459L366.746 98.8022L388.965 130.965L363.416 131.31Z" fill="#DAE4FB"/>
</g>
<path d="M388.689 117.839C388.689 117.839 383.162 112.58 382.221 112.297C381.279 112.014 372.567 110.6 372.521 111.073C374.037 115.378 378.285 116.063 381.429 117.055C381.429 117.055 384.249 121.127 384.155 120.988C384.057 120.849 388.689 117.839 388.689 117.839Z" fill="#FFB6A6"/>
<path d="M445.691 122.451C444.888 122.098 443.95 122.462 443.597 123.266C443.485 123.58 431.017 151.741 430.951 152.062L430.944 152.057C428.867 160.452 428.221 160.357 433.709 153.472C434.093 153.061 446.228 125.014 446.504 124.548C446.857 123.744 446.492 122.805 445.691 122.451Z" fill="#38385C"/>
<path d="M451.826 136.337C451.826 136.337 445.866 132.547 444.623 132.479C443.381 132.41 434.133 134.388 434.201 136.337C434.269 138.284 439.102 147.824 440.689 147.684C442.275 147.547 449.838 146.365 449.838 146.365L451.826 136.337Z" fill="#FFB6A6"/>
<mask id="mask8_1_228" style="mask-type:luminance" maskUnits="userSpaceOnUse" x="434" y="132" width="18" height="16">
<path d="M451.826 136.337C451.826 136.337 445.866 132.547 444.623 132.479C443.381 132.41 434.133 134.388 434.201 136.337C434.269 138.284 439.102 147.824 440.689 147.684C442.275 147.547 449.838 146.365 449.838 146.365L451.826 136.337Z" fill="white"/>
</mask>
<g mask="url(#mask8_1_228)">
<path d="M452.528 139.745C452.528 139.745 442.673 147.07 437.988 145.934L440.051 148.546L452.81 147.355L452.528 139.745Z" fill="#FFDFD8"/>
</g>
<path d="M463.294 74.2937L463.166 73.8695L471.311 71.4188L471.439 71.8409L463.294 74.2937Z" fill="#38385C"/>
<path d="M454.446 69.6687C451.23 69.6577 451.23 77.6968 454.446 77.6857C457.661 77.6968 457.661 69.6577 454.446 69.6687ZM454.446 78.1277C450.652 78.1321 450.654 69.2201 454.446 69.2268C458.239 69.2201 458.239 78.1343 454.446 78.1277Z" fill="#38385C"/>
<path d="M460.543 70.0731C457.327 70.0621 457.327 78.1012 460.543 78.0923C463.758 78.1012 463.758 70.0621 460.543 70.0731ZM460.543 78.5343C456.749 78.5387 456.749 69.6245 460.543 69.6312C464.334 69.6268 464.334 78.5387 460.543 78.5343Z" fill="#38385C"/>
<path d="M457.824 74.0131L457.098 73.8938L457.171 73.4585L457.895 73.5756L457.824 74.0131Z" fill="#38385C"/>
<path d="M584.293 323.526H0.391846V321.425H584.293V323.526Z" fill="#A0B3FF"/>
<path d="M292.342 48.6495C291.228 113.941 194.243 113.932 193.137 48.6473C194.251 -16.6423 291.239 -16.6313 292.342 48.6495Z" fill="#A0B3FF"/>
<path d="M266.208 20.2739L235.04 51.4846L222.63 39.0569L213.587 48.1125L225.997 60.5424L225.964 60.5755L235.007 69.6311L275.251 29.3295L266.208 20.2739Z" fill="#E3EEFD"/>
</svg>
